<svg id="SvgjsSvg1001" width="288" height="288" xmlns="http://www.w3.org/2000/svg" version="1.1" xmlns:xlink="http://www.w3.org/1999/xlink" xmlns:svgjs="http://svgjs.com/svgjs"><defs id="SvgjsDefs1002"></defs><g id="SvgjsG1008"><svg xmlns="http://www.w3.org/2000/svg" viewBox="0 0 30 30" width="288" height="288"><g transform="translate(0 -1022.362)" fill="#ffffff" class="color000 svgShape"><path style="marker:none" fill="#2ea970" stroke="#1d0101" stroke-width="1.028" d="m 29.170673,16.56851 a 14.008413,14.008413 0 1 1 -28.0168263,0 14.008413,14.008413 0 1 1 28.0168263,0 z" color="#000" enable-background="accumulate" overflow="visible" transform="matrix(.97297 0 0 .97297 330.508 953.632)" class="color1a1a1a svgShape colorStroked4d4d4 svgStroke"></path><path fill="#2ea970" stroke="#1d0101" d="M345.29648 957.89011l0 11.863 0 0M357.15947 969.75311l-1.70877 0 0 0M345.29648 981.61611l0-2.0181 0 0M333.43348 969.75311l11.863 0 0 0" class="color1a1a1a svgShape colorStroked4d4d4 svgStroke"></path><path fill="none" d="m 14.999994,1025.9915 -11.2422196,9.9235 2.2484301,0 0,12.8177 6.7453475,0 0,-7.5644 4.651059,0 1.3e-5,7.5644 6.591159,0 0,-12.8177 2.248444,0 -11.242237,-9.9235 0,0 0,0 z" font-size="12"></path><path fill="#2ea970" d="m 5.4476798,1037.3622 6.3682102,-6.3682 -3.1841102,0 -6.36821,6.3682 6.36821,6.3682 3.1841102,0 z m 15.9205302,-6.3682 -3.1841,0 6.36821,6.3682 -6.36821,6.3682 3.1841,0 6.36822,-6.3682 z m -5.57218,-3.1841 -3.98014,19.1046 2.38808,0 3.98014,-19.1046 z" class="color1a1a1a svgShape"></path></g></svg></g></svg>